<svg xmlns="http://www.w3.org/2000/svg" xmlns:xlink="http://www.w3.org/1999/xlink" width="1920" height="1715" viewBox="0 0 1920 1715"><defs><style>.a{clip-path:url(#b);}.b,.c,.d{fill:#707070;}.b,.c{font-size:36px;}.b{font-family:SegoeUI-Bold, Segoe UI;font-weight:700;}.c,.d{font-family:SegoeUI-Semibold, Segoe UI;font-weight:600;}.d{font-size:29px;}.e{fill:#fff;}</style><clipPath id="b"><rect width="1920" height="1715"/></clipPath></defs><g id="a" class="a"><rect class="e" width="1920" height="1715"/><text class="b" transform="translate(132 94)"><tspan x="0" y="0">Re-design SABC website</tspan></text><text class="c" transform="translate(132 172)"><tspan x="0" y="0">Focus on content - what the user wants</tspan></text><text class="c" transform="translate(132 220)"><tspan x="0" y="0">Clear, easy to use , user frendly</tspan></text><text class="c" transform="translate(132 268)"><tspan x="0" y="0" xml:space="preserve">Clear/easy  navigation</tspan></text><text class="c" transform="translate(132 316)"><tspan x="0" y="0">Clear information architecture</tspan></text><text class="c" transform="translate(1139 196)"><tspan x="0" y="0">more intuitive information architecture to </tspan><tspan x="0" y="48">make it easy to find info ion the web</tspan></text><text class="b" transform="translate(474 672)"><tspan x="0" y="0">Radio</tspan></text><text class="b" transform="translate(1466 775)"><tspan x="0" y="0">Tv</tspan></text><text class="b" transform="translate(450 1220)"><tspan x="0" y="39">Sports</tspan></text><text class="b" transform="translate(1287 1196)"><tspan x="0" y="39">News</tspan></text><text class="d" transform="translate(571 557)"><tspan x="0" y="0">Trending(All)</tspan></text><text class="d" transform="translate(1396 668)"><tspan x="0" y="0">Trending(All)</tspan></text><text class="d" transform="translate(428 1150)"><tspan x="0" y="0">Fixtures</tspan></text><text class="d" transform="translate(1265 1126)"><tspan x="0" y="0">Finanace</tspan></text><text class="d" transform="translate(1242 753)"><tspan x="0" y="0">New shows</tspan></text><text class="d" transform="translate(209 1232)"><tspan x="0" y="0">Latest news</tspan></text><text class="d" transform="translate(1046 1208)"><tspan x="0" y="0">Headlines</tspan></text><text class="d" transform="translate(1305 851)"><tspan x="0" y="0">movies</tspan></text><text class="d" transform="translate(1357 916)"><tspan x="0" y="0">prime time</tspan></text><text class="d" transform="translate(1534 935)"><tspan x="0" y="0">Stars</tspan></text><text class="d" transform="translate(704 702)"><tspan x="0" y="0">Live stream</tspan></text><text class="d" transform="translate(1578 763)"><tspan x="0" y="0">Live stream</tspan></text><text class="d" transform="translate(610 1245)"><tspan x="0" y="0">Live score</tspan></text><text class="d" transform="translate(1447 1221)"><tspan x="0" y="0">Tech</tspan></text><text class="d" transform="translate(1513 856)"><tspan x="0" y="0">Catch up</tspan></text><text class="d" transform="translate(610 1338)"><tspan x="0" y="0">Catch up</tspan></text><text class="d" transform="translate(1361 1319)"><tspan x="0" y="0">important updates</tspan></text><text class="d" transform="translate(195 595)"><tspan x="0" y="0">Line up + Djs profiles</tspan></text><text class="d" transform="translate(234 782)"><tspan x="0" y="0">Playlist/s - overall by genre/mostly played/new hits</tspan></text></g></svg>