<svg xmlns="http://www.w3.org/2000/svg" xmlns:xlink="http://www.w3.org/1999/xlink" width="1920" height="4440" viewBox="0 0 1920 4440"><defs><style>.a{clip-path:url(#b);}.b{fill:#e9e9e9;}.c,.f{fill:#616161;}.c,.d,.f,.g{stroke:#707070;}.d,.i{fill:none;}.d{stroke-linecap:round;stroke-width:2px;}.e,.g{fill:#fff;}.f{opacity:0.34;}.h{stroke:none;}</style><clipPath id="b"><rect width="1920" height="4440"/></clipPath></defs><g id="a" class="a"><rect class="e" width="1920" height="4440"/><rect class="b" width="1920" height="1076"/><rect class="b" width="1920" height="1076" transform="translate(0 3360)"/><g class="c" transform="translate(56 47)"><rect class="h" width="164" height="44" rx="16"/><rect class="i" x="0.5" y="0.5" width="163" height="43" rx="15.5"/></g><g transform="translate(1060.967 57.416)"><g class="c" transform="translate(0.033 -0.416)"><rect class="h" width="111" height="22" rx="11"/><rect class="i" x="0.5" y="0.5" width="110" height="21" rx="10.5"/></g><g class="c" transform="translate(293.033 -0.416)"><rect class="h" width="112" height="22" rx="11"/><rect class="i" x="0.5" y="0.5" width="111" height="21" rx="10.5"/></g><g class="c" transform="translate(147.033 -0.416)"><rect class="h" width="111" height="22" rx="11"/><rect class="i" x="0.5" y="0.5" width="110" height="21" rx="10.5"/></g><g class="c" transform="translate(440.033 -0.416)"><rect class="h" width="111" height="22" rx="11"/><rect class="i" x="0.5" y="0.5" width="110" height="21" rx="10.5"/></g><g class="c" transform="translate(587.033 -0.416)"><rect class="h" width="111" height="22" rx="11"/><rect class="i" x="0.5" y="0.5" width="110" height="21" rx="10.5"/></g></g><g transform="translate(-2662 143)"><path class="d" d="M4503.333-82.667h32" transform="translate(0 -3.333)"/><path class="d" d="M4503.333-82.667h32" transform="translate(0 6.667)"/><path class="d" d="M4503.333-82.667h32" transform="translate(0 16.667)"/></g><circle class="e" cx="48.5" cy="48.5" r="48.5" transform="translate(202 490)"/><g class="c" transform="translate(181 633)"><rect class="h" width="336" height="91" rx="15"/><rect class="i" x="0.5" y="0.5" width="335" height="90" rx="14.5"/></g><g class="f" transform="translate(181 1273)"><rect class="h" width="144" height="27" rx="2"/><rect class="i" x="0.5" y="0.5" width="143" height="26" rx="1.5"/></g><g class="f" transform="translate(181 1773)"><rect class="h" width="144" height="27" rx="2"/><rect class="i" x="0.5" y="0.5" width="143" height="26" rx="1.5"/></g><g class="f" transform="translate(181 2273)"><rect class="h" width="144" height="27" rx="2"/><rect class="i" x="0.5" y="0.5" width="143" height="26" rx="1.5"/></g><g class="c" transform="translate(181 751)"><rect class="h" width="779" height="91" rx="15"/><rect class="i" x="0.5" y="0.5" width="778" height="90" rx="14.5"/></g><g class="g" transform="translate(181 1348)"><rect class="h" width="419" height="264" rx="10"/><rect class="i" x="0.5" y="0.5" width="418" height="263" rx="9.5"/></g><g class="g" transform="translate(181 1848)"><rect class="h" width="419" height="264" rx="10"/><rect class="i" x="0.5" y="0.5" width="418" height="263" rx="9.5"/></g><g class="g" transform="translate(181 2348)"><rect class="h" width="419" height="264" rx="10"/><rect class="i" x="0.5" y="0.5" width="418" height="263" rx="9.5"/></g><g class="g" transform="translate(1111 1348)"><rect class="h" width="419" height="264" rx="10"/><rect class="i" x="0.5" y="0.5" width="418" height="263" rx="9.5"/></g><g class="g" transform="translate(1111 1848)"><rect class="h" width="419" height="264" rx="10"/><rect class="i" x="0.5" y="0.5" width="418" height="263" rx="9.5"/></g><g class="g" transform="translate(1111 2348)"><rect class="h" width="419" height="264" rx="10"/><rect class="i" x="0.5" y="0.5" width="418" height="263" rx="9.5"/></g><g class="g" transform="translate(646 1348)"><rect class="h" width="419" height="264" rx="10"/><rect class="i" x="0.5" y="0.5" width="418" height="263" rx="9.5"/></g><g class="g" transform="translate(646 1848)"><rect class="h" width="419" height="264" rx="10"/><rect class="i" x="0.5" y="0.5" width="418" height="263" rx="9.5"/></g><g class="g" transform="translate(646 2348)"><rect class="h" width="419" height="264" rx="10"/><rect class="i" x="0.5" y="0.5" width="418" height="263" rx="9.5"/></g><g class="g" transform="translate(1576 1348)"><rect class="h" width="419" height="264" rx="10"/><rect class="i" x="0.5" y="0.5" width="418" height="263" rx="9.5"/></g><g class="g" transform="translate(1576 1848)"><rect class="h" width="419" height="264" rx="10"/><rect class="i" x="0.5" y="0.5" width="418" height="263" rx="9.5"/></g><g class="g" transform="translate(1576 2348)"><rect class="h" width="419" height="264" rx="10"/><rect class="i" x="0.5" y="0.5" width="418" height="263" rx="9.5"/></g><g class="f" transform="translate(181 2773)"><rect class="h" width="144" height="27" rx="2"/><rect class="i" x="0.5" y="0.5" width="143" height="26" rx="1.5"/></g><g class="g" transform="translate(181 2848)"><rect class="h" width="419" height="264" rx="10"/><rect class="i" x="0.5" y="0.5" width="418" height="263" rx="9.5"/></g><g class="g" transform="translate(1111 2848)"><rect class="h" width="419" height="264" rx="10"/><rect class="i" x="0.5" y="0.5" width="418" height="263" rx="9.5"/></g><g class="g" transform="translate(646 2848)"><rect class="h" width="419" height="264" rx="10"/><rect class="i" x="0.5" y="0.5" width="418" height="263" rx="9.5"/></g><g class="g" transform="translate(1576 2848)"><rect class="h" width="419" height="264" rx="10"/><rect class="i" x="0.5" y="0.5" width="418" height="263" rx="9.5"/></g></g></svg>