<svg xmlns="http://www.w3.org/2000/svg" xmlns:xlink="http://www.w3.org/1999/xlink" width="1920" height="1079" viewBox="0 0 1920 1079"><defs><style>.a{clip-path:url(#b);}.b,.d,.e,.h{fill:#fff;}.b{font-size:18px;font-family:Montserrat-Light, Montserrat;font-weight:300;}.c,.f,.g{fill:none;}.c,.f{stroke:#fff;stroke-linecap:round;}.c{stroke-linejoin:round;stroke-width:1.5px;}.d{font-size:35px;}.d,.e{font-family:Noah-Bold, Noah;font-weight:700;}.e{font-size:20px;}.f{stroke-width:5px;}.g{stroke:#fc0;stroke-width:3px;}</style><clipPath id="b"><rect width="1920" height="1079"/></clipPath></defs><g id="a" class="a"><rect class="h" width="1920" height="1079"/><rect width="1920" height="1079"/><g transform="translate(395 125)"><text class="b" transform="translate(432 36)"><tspan x="25.311" y="18">Search for something here</tspan></text><g transform="translate(411 37)"><circle class="c" cx="8" cy="8" r="8" transform="translate(3 3)"/><line class="c" x1="4.35" y1="4.35" transform="translate(16.65 16.65)"/></g></g><g transform="translate(-100 -13)"><g transform="translate(-6 66)"><text class="d" transform="translate(914 273)"><tspan x="0" y="33">Content Submision</tspan></text><text class="e" transform="translate(914 361)"><tspan x="0" y="19">Technical Delivery Specs.</tspan></text><text class="e" transform="translate(914 423)"><tspan x="0" y="19">Trade of Terms</tspan></text><text class="e" transform="translate(914 485)"><tspan x="0" y="19">Policy</tspan></text></g><g transform="translate(-6 66)"><text class="e" transform="translate(904 679)"><tspan x="0" y="19">News &amp; Press</tspan></text><text class="e" transform="translate(904 741)"><tspan x="0" y="19">Stories &amp; Vox Pop</tspan></text><text class="e" transform="translate(904 803)"><tspan x="0" y="19">Presentations</tspan></text><text class="d" transform="translate(904 604)"><tspan x="0" y="33">Media Center</tspan></text></g><g transform="translate(-6 66)"><text class="e" transform="translate(1426 361)"><tspan x="0" y="19">About</tspan></text><text class="e" transform="translate(1426 423)"><tspan x="0" y="19">SABC Board</tspan></text><text class="e" transform="translate(1426 485)"><tspan x="0" y="19">Careers</tspan></text><text class="e" transform="translate(1426 537)"><tspan x="0" y="19">Internships &amp; Learnerships</tspan></text><text class="e" transform="translate(1426 599)"><tspan x="0" y="19">Community Briefs</tspan></text><text class="e" transform="translate(1426 651)"><tspan x="0" y="19">Annual reports</tspan></text><text class="e" transform="translate(1426 703)"><tspan x="0" y="19">Trade</tspan></text><text class="e" transform="translate(1426 765)"><tspan x="0" y="19">FAQ</tspan></text><text class="d" transform="translate(1426 273)"><tspan x="0" y="33">Corporate </tspan></text></g><g transform="translate(-6 66)"><text class="d" transform="translate(439 331)"><tspan x="0" y="33">TV Licences</tspan></text><text class="d" transform="translate(439 451)"><tspan x="0" y="33">Advertise</tspan></text><text class="d" transform="translate(439 571)"><tspan x="0" y="33">Contact</tspan></text><text class="d" transform="translate(439 691)"><tspan x="0" y="33">Editorial Policy</tspan></text></g></g><g transform="translate(154 -98)"><path class="f" d="M13711,161l37.483,37.483" transform="translate(-12062.5 -2.5)"/><path class="f" d="M13711,161l37.483,37.483" transform="translate(1846.983 -13552.5) rotate(90)"/></g><path class="g" d="M-12104-22414.5h128" transform="translate(12910.667 22919.166)"/></g></svg>